<svg width="30" height="30" viewBox="0 0 30 30" fill="none" xmlns="http://www.w3.org/2000/svg">
<path d="M21.634 29.7002L23.1368 28.1973C23.3375 27.9971 23.4375 27.7664 23.4375 27.5056C23.4375 27.2454 23.3375 27.0148 23.1368 26.8146L11.323 15.0002L23.1365 3.18627C23.3372 2.9859 23.4372 2.75532 23.4372 2.49483C23.4372 2.23424 23.3372 2.00366 23.1365 1.8034L21.6336 0.300706C21.4333 0.100025 21.2027 -9.76848e-08 20.9421 -1.09076e-07C20.6818 -1.20457e-07 20.4512 0.100341 20.2509 0.300706L6.24259 14.3087C6.04222 14.509 5.94209 14.7397 5.94209 15.0002C5.94209 15.2606 6.04222 15.4909 6.24259 15.6911L20.2509 29.7002C20.4513 29.9005 20.6819 30 20.9421 30C21.2027 30 21.4333 29.9005 21.634 29.7002Z" fill="black"/>
</svg>
