<svg width="22" height="22" viewBox="0 0 22 22" fill="none" xmlns="http://www.w3.org/2000/svg">
<path d="M21.7802 6.23701L20.6781 5.20625C20.5312 5.06861 20.362 5 20.1708 5C19.98 5 19.8109 5.06861 19.664 5.20625L11.0001 13.3093L2.3366 5.20647C2.18966 5.06882 2.02057 5.00022 1.82954 5.00022C1.63844 5.00022 1.46935 5.06882 1.32249 5.20647L0.220518 6.2373C0.0733516 6.37466 0 6.53281 0 6.71155C0 6.89015 0.0735832 7.0483 0.220518 7.18566L10.4931 16.7939C10.6399 16.9313 10.8091 17 11.0001 17C11.1911 17 11.36 16.9313 11.5068 16.7939L21.7802 7.18566C21.927 7.04823 22 6.89007 22 6.71155C22 6.53281 21.927 6.37466 21.7802 6.23701Z" fill="#404040"/>
</svg>
