<svg width="50" height="50" viewBox="0 0 50 50" fill="none" xmlns="http://www.w3.org/2000/svg">
<g clip-path="url(#clip0_759_1861)">
<path d="M50 25C50 38.8125 38.8125 50 25 50C11.1875 50 0 38.8125 0 25C0 11.1875 11.1875 0 25 0C38.8125 0 50 11.1875 50 25Z" fill="url(#paint0_linear_759_1861)"/>
<path d="M20.4168 36.4585C19.6043 36.4585 19.7502 36.146 19.4585 35.3752L17.0835 27.5418L31.8335 18.3335L33.5627 18.7918L32.1252 22.7085L20.4168 36.4585Z" fill="#C8DAEA"/>
<path d="M20.4165 36.4583C21.0415 36.4583 21.3123 36.1667 21.6665 35.8333C22.2082 35.3125 29.1665 28.5417 29.1665 28.5417L24.8957 27.5L20.9373 30L20.4165 36.25V36.4583Z" fill="#A9C9DD"/>
<path d="M20.8332 30.0831L30.9165 37.5206C32.0624 38.1456 32.8957 37.8331 33.1874 36.4581L37.2915 17.1248C37.7082 15.4373 36.6457 14.6873 35.5415 15.1873L11.4582 24.4789C9.81237 25.1456 9.8332 26.0623 11.1665 26.4581L17.354 28.3956L31.6665 19.3748C32.3332 18.9581 32.9582 19.1873 32.4582 19.6456L20.8332 30.0831Z" fill="url(#paint1_linear_759_1861)"/>
</g>
<defs>
<linearGradient id="paint0_linear_759_1861" x1="32.3271" y1="7.90208" x2="19.8271" y2="37.0683" gradientUnits="userSpaceOnUse">
<stop stop-color="#37AEE2"/>
<stop offset="1" stop-color="#1E96C8"/>
</linearGradient>
<linearGradient id="paint1_linear_759_1861" x1="26.873" y1="25.7821" x2="32.0813" y2="34.1154" gradientUnits="userSpaceOnUse">
<stop stop-color="#EFF7FC"/>
<stop offset="1" stop-color="white"/>
</linearGradient>
<clipPath id="clip0_759_1861">
<rect width="50" height="50" fill="white"/>
</clipPath>
</defs>
</svg>
