<svg width="50" height="50" viewBox="0 0 50 50" fill="none" xmlns="http://www.w3.org/2000/svg">
<g clip-path="url(#clip0_759_1846)">
<path fill-rule="evenodd" clip-rule="evenodd" d="M5 0H45C47.7616 0 50 2.2384 50 5V45C50 47.7616 47.7616 50 45 50H5C2.2384 50 0 47.7616 0 45V5C0 2.2384 2.2384 0 5 0Z" fill="#010101"/>
<path fill-rule="evenodd" clip-rule="evenodd" d="M31.396 46.0002C32.9174 46.0002 34.1508 44.7768 34.1508 43.2678C34.1508 41.7588 32.9174 40.5352 31.396 40.5352H30.981C32.5024 40.5352 33.7358 41.7588 33.7358 43.2678C33.7358 44.7768 32.5024 46.0002 30.981 46.0002H31.396Z" fill="#EE1D51"/>
<path fill-rule="evenodd" clip-rule="evenodd" d="M30.9434 40.5352H30.5284C29.007 40.5352 27.7734 41.7588 27.7734 43.2678C27.7734 44.7768 29.007 46.0002 30.5284 46.0002H30.9434C29.4218 46.0002 28.1884 44.7768 28.1884 43.2678C28.1884 41.7588 29.4218 40.5352 30.9434 40.5352Z" fill="#66C8CF"/>
<path d="M30.9624 44.5962C31.7023 44.5962 32.3022 44.0013 32.3022 43.2676C32.3022 42.5338 31.7023 41.939 30.9624 41.939C30.2224 41.939 29.6226 42.5338 29.6226 43.2676C29.6226 44.0013 30.2224 44.5962 30.9624 44.5962Z" fill="#010101"/>
<path fill-rule="evenodd" clip-rule="evenodd" d="M10 39.2998V40.6848H11.6224V45.9624H13.2454V40.7222H14.566L15.0188 39.2998H10ZM23.283 39.2998V40.6848H24.9054V45.9624H26.5284V40.7222H27.849L28.3018 39.2998H23.283ZM15.321 40.0858C15.321 39.6518 15.6752 39.2998 16.1128 39.2998C16.5508 39.2998 16.9054 39.6518 16.9054 40.0858C16.9054 40.5198 16.551 40.8718 16.1128 40.8718C15.6752 40.8716 15.321 40.5198 15.321 40.0858ZM15.321 41.4334H16.9054V45.9624H15.321V41.4334ZM17.5848 39.2998V45.9624H19.1698V44.2408L19.6604 43.7912L21.2074 45.9998H22.9054L20.6788 42.7808L22.6788 40.8342H20.7544L19.1698 42.4062V39.2998H17.5848ZM34.6788 39.2998V45.9624H36.264V44.2408L36.7544 43.7912L38.3018 45.9998H40L37.7734 42.7808L39.7734 40.8342H37.849L36.264 42.4062V39.2998H34.6788Z" fill="white"/>
<path fill-rule="evenodd" clip-rule="evenodd" d="M32.2335 16.2372C34.4223 17.801 37.1039 18.7212 39.9999 18.7212V13.151C39.4518 13.1512 38.9051 13.094 38.3689 12.9804V17.365C35.4731 17.365 32.7919 16.4448 30.6025 14.881V26.248C30.6025 31.9344 25.9905 36.5438 20.3015 36.5438C18.1789 36.5438 16.2059 35.9024 14.5669 34.8024C16.4375 36.714 19.0461 37.9 21.9321 37.9C27.6215 37.9 32.2337 33.2906 32.2337 27.604L32.2335 16.2372ZM34.2455 10.6176C33.1269 9.39616 32.3925 7.81756 32.2335 6.07236V5.35596H30.6879C31.0769 7.57396 32.4039 9.46896 34.2455 10.6176ZM18.1651 30.439C17.5402 29.6199 17.2024 28.6179 17.2039 27.5878C17.2039 24.987 19.3135 22.8784 21.9161 22.8784C22.4011 22.878 22.8832 22.9524 23.3455 23.099V17.4044C22.8053 17.3304 22.2602 17.299 21.7151 17.3106V21.743C21.2526 21.5964 20.7703 21.522 20.2851 21.5224C17.6825 21.5224 15.5731 23.631 15.5731 26.232C15.5731 28.071 16.6275 29.6634 18.1651 30.439Z" fill="#EE1D52"/>
<path fill-rule="evenodd" clip-rule="evenodd" d="M30.6025 14.881C32.7919 16.4448 35.4731 17.365 38.3689 17.365V12.9804C36.7525 12.6364 35.3215 11.792 34.2455 10.6176C32.4039 9.46896 31.0769 7.57396 30.6879 5.35596H26.6281V27.6038C26.6189 30.1974 24.5129 32.2974 21.9159 32.2974C20.3855 32.2974 19.0259 31.5684 18.1649 30.439C16.6273 29.6634 15.5729 28.071 15.5729 26.232C15.5729 23.631 17.6823 21.5224 20.2849 21.5224C20.7835 21.5224 21.2641 21.6 21.7149 21.743V17.3106C16.1259 17.426 11.6309 21.9904 11.6309 27.604C11.6309 30.4062 12.7503 32.9466 14.5669 34.8026C16.2059 35.9026 18.1789 36.544 20.3015 36.544C25.9905 36.544 30.6025 31.9344 30.6025 26.2482V14.881Z" fill="white"/>
<path fill-rule="evenodd" clip-rule="evenodd" d="M38.3688 12.9804V11.7948C36.9111 11.797 35.4822 11.389 34.2454 10.6174C35.3402 11.8154 36.7817 12.6415 38.3688 12.9804ZM30.6878 5.356C30.6506 5.14405 30.6221 4.93067 30.6024 4.7164V4H24.9968V26.248C24.9878 28.8414 22.882 30.9414 20.2848 30.9414C19.5222 30.9414 18.8024 30.7606 18.1648 30.439C19.0258 31.5684 20.3854 32.2974 21.9158 32.2974C24.5126 32.2974 26.6188 30.1974 26.628 27.6038V5.356H30.6878ZM21.715 17.3106V16.0484C21.2466 15.9844 20.7744 15.9524 20.3016 15.9526C14.612 15.9526 10 20.5622 10 26.248C10 29.8128 11.8126 32.9544 14.567 34.8024C12.7504 32.9464 11.631 30.406 11.631 27.6038C11.631 21.9904 16.1258 17.426 21.715 17.3106Z" fill="#69C9D0"/>
<path fill-rule="evenodd" clip-rule="evenodd" d="M30.9809 46.0002C32.5023 46.0002 33.7359 44.7768 33.7359 43.2678C33.7359 41.7588 32.5023 40.5352 30.9809 40.5352H30.9433C29.4219 40.5352 28.1885 41.7588 28.1885 43.2678C28.1885 44.7768 29.4219 46.0002 30.9433 46.0002H30.9809ZM29.6225 43.2678C29.6225 42.5338 30.2225 41.9392 30.9625 41.9392C31.7019 41.9392 32.3019 42.5338 32.3019 43.2678C32.3019 44.0018 31.7019 44.5968 30.9625 44.5968C30.2225 44.5966 29.6225 44.0018 29.6225 43.2678Z" fill="white"/>
</g>
<defs>
<clipPath id="clip0_759_1846">
<rect width="50" height="50" fill="white"/>
</clipPath>
</defs>
</svg>
