<svg width="64" height="50" viewBox="0 0 64 50" fill="none" xmlns="http://www.w3.org/2000/svg">
<g clip-path="url(#clip0_759_1857)">
<path d="M42.666 24.2145C36.8142 20.7362 31.2109 17.5384 25.4834 14.1997V34.1726C31.5105 30.5283 37.8633 27.191 42.6909 24.2145H42.666Z" fill="white"/>
<path d="M42.666 24.2145C36.8142 20.7362 25.4834 14.1997 25.4834 14.1997L40.5903 25.4933C40.5903 25.4933 37.8384 27.191 42.666 24.2145Z" fill="#E8E0E0"/>
<path d="M26.5846 49.8072C14.4297 49.5583 10.2782 49.3344 7.72647 48.7496C6.00004 48.3611 4.49977 47.4985 3.39974 46.2473C2.54955 45.3003 1.87342 43.8555 1.34886 41.851C0.898898 40.181 0.72365 38.7915 0.473802 35.3975C0.091335 27.7376 0.000158608 21.4751 0.473802 14.4777C0.864559 10.6135 1.05402 6.02629 3.64958 3.35007C4.87514 2.09756 6.30081 1.29154 7.90172 0.958328C10.4026 0.430196 21.0572 0.0126953 32.0872 0.0126953C43.0923 0.0126953 53.7706 0.430196 56.2738 0.958328C58.2737 1.37583 60.1494 2.62701 61.2506 4.24038C63.6188 8.38378 63.6603 13.536 63.9006 17.5662C64.0001 19.4864 64.0001 30.3901 63.9006 32.3104C63.5265 38.6796 63.2257 40.933 62.3755 43.2694C61.8498 44.7445 61.401 45.5229 60.6242 46.3856C59.4059 47.7131 57.8529 48.5961 56.172 48.9169C45.6535 49.7967 36.7218 49.9876 26.5846 49.8072ZM42.692 24.2146C36.8402 20.7363 31.237 17.5108 25.5094 14.1722V34.1463C31.5366 30.5021 37.8905 27.1634 42.7169 24.1869L42.692 24.2146Z" fill="#CD201F"/>
</g>
<defs>
<clipPath id="clip0_759_1857">
<rect width="64" height="50" fill="white"/>
</clipPath>
</defs>
</svg>
